#N canvas 412 94 1276 722 12;
#X obj 496 407 s theta;
#X obj 148 338 f 0;
#X obj 123 318 t b f;
#X obj 166 318 r theta;
#X obj 293 319 r omega;
#X obj 392 319 r K;
#X obj 374 338 f 1;
#X obj 261 338 f 0.2;
#X obj 122 280 bng 15 250 50 0 empty reset Restart_Orbit 17 7 0 10
-204786 -1 -1;
#X msg 122 299 0;
#X obj 416 129 hsl 160 15 0.15 1 0 0 empty omega_ omega -2 -8 0 10
-262130 -1 -1 3891 1;
#X obj 413 147 s omega;
#X obj 583 66 vsl 15 160 0 1 0 0 empty K_ K 0 -9 0 10 -262130 -1 -1
3085 1;
#X obj 583 232 s K;
#X obj 148 358 expr if( ($f1*$f1) > $f4 \, 1 \, 0 ) \; $f1+$f2-( $f3/(2*acos(-1))
)*sin(2*acos(-1)*$f1) \;;
#X obj 496 389 wrap 1;
#X floatatom 501 368 5 0 0 0 - - -, f 5;
#X obj 488 485 i;
#X floatatom 461 545 3 0 0 0 - - -, f 3;
#X floatatom 460 524 3 0 0 0 - - -, f 3;
#X obj 488 583 makenote 100 200;
#X text 549 446 Octive;
#X floatatom 533 524 5 0 0 0 - - -, f 5;
#X obj 595 446 loadbang;
#X floatatom 447 485 5 0 0 0 - - -, f 5;
#X obj 488 446 * 11;
#X obj 148 388 sel 1;
#X floatatom 402 338 5 0 0 0 - - -, f 5;
#X floatatom 179 338 5 0 0 0 - - -, f 5;
#X floatatom 305 338 5 0 0 0 - - -, f 5;
#X obj 148 176 bng 15 250 50 0 empty empty empty 17 7 0 10 -262144
-1 -1;
#X obj 111 82 midiClockIn;
#X obj 207 28 bng 30 250 50 0 reset go Go -22 7 0 10 -204786 -1 -1
;
#X obj 207 81 tgl 15 0 empty empty empty 17 7 0 10 -262144 -1 -1 1
1;
#X floatatom 185 101 5 0 0 1 bpm - -, f 5;
#X obj 185 119 s bpm;
#N canvas 752 32 368 225 startStop 0;
#X obj 201 39 inlet;
#X obj 234 60 bng 15 250 50 0 empty stop empty 17 7 0 10 -262144 -1
-1;
#X obj 201 125 outlet;
#X text 167 60 stop bang;
#X text 127 38 start bang;
#X obj 201 104 tgl 15 0 empty empty empty 17 7 0 10 -262144 -1 -1 1
1;
#X obj 201 79 f 1;
#X obj 234 79 f 0;
#X text 50 80 start on a start bang;
#X text 64 104 stop on a stop bang;
#N canvas 798 113 632 468 copyrightInfo 0;
#X text 74 306 j.raski@gmail.com;
#X text 43 19 This program creates generative music on an electronic
synthesiser. Copyright (C) 2019 Jerry Z. Raski This program is free
software: you can redistribute it and/or modify it under the terms
of the GNU General Public License as published by the Free Software
Foundation \, either version 3 of the License \, or (at your option)
any later version. This program is distributed in the hope that it
will be useful \, but WITHOUT ANY WARRANTY \; without even the implied
warranty of MERCHANTABILITY or FITNESS FOR A PARTICULAR PURPOSE. See
the GNU General Public License for more details. You should have received
a copy of the GNU General Public License along with this program. If
not \, see <https://www.gnu.org/licenses/>.;
#X restore 45 177 pd copyrightInfo;
#X connect 0 0 6 0;
#X connect 1 0 7 0;
#X connect 5 0 2 0;
#X connect 6 0 5 0;
#X connect 7 0 5 0;
#X restore 207 62 pd startStop;
#X obj 148 138 spigot;
#X obj 148 157 euclidRhythm trk1;
#X obj 488 340 f 1;
#X text 11 388 to ensure stability;
#X obj 881 414 quantizer~ aa;
#X obj 863 435 f;
#X obj 892 435 f;
#X obj 921 435 f;
#X obj 951 435 f;
#X obj 863 454 makenote 80 2000;
#X obj 892 496 makenote 80 2000;
#X obj 921 537 makenote 80 2000;
#X obj 951 576 makenote 80 2000;
#X obj 951 597 noteout 3;
#X obj 921 556 noteout 3;
#X obj 892 516 noteout 3;
#X obj 863 475 noteout 3;
#X obj 711 49 quantizer aa;
#X obj 841 376 bng 15 250 50 0 empty empty empty 17 7 0 10 -262144
-1 -1;
#X msg 881 395 0;
#X obj 810 337 f 0;
#X obj 810 357 + 1;
#X floatatom 777 357 4 0 0 0 - - -, f 4;
#X obj 841 357 sel 0;
#X msg 828 318 0;
#X text 729 337 counts 64's;
#X obj 828 299 r reset;
#X obj 841 337 mod 64;
#X obj 597 524 r bpm;
#X floatatom 608 584 5 0 0 1 ms_per_1/16_note - -, f 5;
#X text 509 543 /4 is 16th's;
#X obj 144 605 s reset;
#X obj 144 585 bng 15 250 50 0 empty empty Resets_counts_and_map 17
7 0 10 -262144 -1 -1;
#X obj 597 543 expr 1000*($f1/60)/4;
#X obj 1030 382 r bpm;
#X obj 1030 401 expr 1000*($f1/60)/4;
#X floatatom 1043 447 7 0 0 1 ms_for_four+_measures - -, f 7;
#N canvas 1243 73 450 300 randInvert 0;
#X obj 143 66 inlet;
#X obj 143 88 random 4;
#X obj 143 148 send;
#X floatatom 117 110 3 0 0 0 - - -, f 3;
#X symbolatom 182 148 12 0 0 0 - - -, f 12;
#X msg 168 128 symbol \$1-invert;
#X obj 168 108 r dollarZero;
#X connect 0 0 1 0;
#X connect 1 0 3 0;
#X connect 1 0 2 0;
#X connect 5 0 4 0;
#X connect 5 0 2 1;
#X connect 6 0 5 0;
#X restore 793 496 pd randInvert;
#N canvas 479 268 450 300 randVoicing 0;
#X obj 143 66 inlet;
#X obj 143 88 random 4;
#X obj 143 148 send;
#X floatatom 117 110 3 0 0 0 - - -, f 3;
#X symbolatom 182 148 12 0 0 0 - - -, f 12;
#X obj 168 108 r dollarZero;
#X msg 168 128 symbol \$1-voicing;
#X connect 0 0 1 0;
#X connect 1 0 3 0;
#X connect 1 0 2 0;
#X connect 5 0 6 0;
#X connect 6 0 4 0;
#X connect 6 0 2 1;
#X restore 814 537 pd randVoicing;
#N canvas 651 213 343 300 randQuality 0;
#X obj 80 41 inlet;
#X obj 149 167 send;
#X floatatom 43 86 3 0 0 0 - - -, f 3;
#X symbolatom 188 167 12 0 0 0 - - -, f 12;
#X obj 174 127 r dollarZero;
#X msg 174 147 symbol \$1-quality;
#X obj 80 63 random 3;
#X obj 81 83 sel 0 1 2;
#X msg 81 104 3;
#X msg 115 104 9;
#X msg 149 104 11;
#X connect 0 0 6 0;
#X connect 4 0 5 0;
#X connect 5 0 3 0;
#X connect 5 0 1 1;
#X connect 6 0 2 0;
#X connect 6 0 7 0;
#X connect 7 0 8 0;
#X connect 7 1 9 0;
#X connect 7 2 10 0;
#X connect 8 0 1 0;
#X connect 9 0 1 0;
#X connect 10 0 1 0;
#X restore 844 576 pd randQuality;
#X text 389 389 circle map out;
#X obj 488 504 tabread scale1;
#N canvas 53 466 450 300 defineScale 0;
#X obj 145 77 array define -k scale1 11;
#A 0 0 3 5 7 10 12 15 17 19 22 24;
#X text 165 59 11 possible tones;
#X msg 80 144 0;
#X obj 26 106 bng 15 250 50 0 empty empty empty 17 7 0 10 -262144 -1
-1;
#X text 60 109 Minor pentatonic;
#X msg 26 125 0 3 5 7 10 12 15 17 19 22 24;
#X obj 26 163 array set scale1;
#X obj 240 102 bng 15 250 50 0 empty empty empty 17 7 0 10 -262144
-1 -1;
#X text 290 107 Minor scale;
#X msg 296 143 0;
#X obj 240 162 array set scale1;
#X obj 26 86 loadbang;
#X msg 240 124 0 2 3 5 7 8 10 12 14 15 17;
#X connect 2 0 6 1;
#X connect 3 0 2 0;
#X connect 3 0 5 0;
#X connect 5 0 6 0;
#X connect 7 0 12 0;
#X connect 7 0 9 0;
#X connect 9 0 10 1;
#X connect 11 0 3 0;
#X connect 12 0 10 0;
#X restore 215 673 pd defineScale;
#X obj 488 524 +;
#X msg 533 465 48;
#X msg 564 465 60;
#X msg 595 465 72;
#X obj 148 407 s reset;
#X obj 488 466 + 0.5;
#X obj 22 632 loadbang;
#X obj 22 672 print -n;
#N canvas 798 113 632 468 copyrightInfo 0;
#X text 74 306 j.raski@gmail.com;
#X text 43 19 This program creates generative music on an electronic
synthesiser. Copyright (C) 2019 Jerry Z. Raski This program is free
software: you can redistribute it and/or modify it under the terms
of the GNU General Public License as published by the Free Software
Foundation \, either version 3 of the License \, or (at your option)
any later version. This program is distributed in the hope that it
will be useful \, but WITHOUT ANY WARRANTY \; without even the implied
warranty of MERCHANTABILITY or FITNESS FOR A PARTICULAR PURPOSE. See
the GNU General Public License for more details. You should have received
a copy of the GNU General Public License along with this program. If
not \, see <https://www.gnu.org/licenses/>.;
#X restore 89 673 pd copyrightInfo;
#X msg 22 652 circleMaps: Circle map melodies. Copyright (c) 2019 Jerry
Z Raski, f 65;
#X obj 488 427 / 2;
#X obj 1030 421 * 68;
#X obj 24 565 loadbang;
#X msg 24 585 \; omega_ 0.358 \; K_ 0.194 \;, f 14;
#X obj 488 605 noteout 1;
#X text 432 81 Circle map parameters;
#X text 460 94 change the melody;
#X text 20 692 See http://mathworld.wolfram.com/CircleMap.html;
#X obj 597 563 * 0.98;
#X obj 1005 78 pgmin;
#X floatatom 1037 105 0 0 0 0 - - -;
#X floatatom 1005 105 0 0 0 0 - - -;
#X text 952 68 program change, f 7;
#X text 34 102 wait for bpm to start;
#X connect 1 0 14 0;
#X connect 2 0 1 0;
#X connect 2 1 1 1;
#X connect 3 0 1 1;
#X connect 3 0 28 0;
#X connect 4 0 7 1;
#X connect 4 0 29 0;
#X connect 5 0 6 1;
#X connect 5 0 27 0;
#X connect 6 0 14 2;
#X connect 7 0 14 1;
#X connect 8 0 9 0;
#X connect 9 0 2 0;
#X connect 10 0 11 0;
#X connect 12 0 13 0;
#X connect 14 0 26 0;
#X connect 14 1 15 0;
#X connect 14 1 16 0;
#X connect 14 1 90 0;
#X connect 15 0 0 0;
#X connect 17 0 19 0;
#X connect 17 0 78 0;
#X connect 20 0 94 0;
#X connect 20 1 94 1;
#X connect 23 0 83 0;
#X connect 25 0 24 0;
#X connect 25 0 85 0;
#X connect 26 0 84 0;
#X connect 30 0 1 0;
#X connect 30 0 7 0;
#X connect 30 0 6 0;
#X connect 30 0 39 0;
#X connect 31 1 37 0;
#X connect 31 2 34 0;
#X connect 32 0 36 0;
#X connect 33 0 37 1;
#X connect 34 0 35 0;
#X connect 36 0 33 0;
#X connect 37 0 38 0;
#X connect 37 0 57 0;
#X connect 38 0 30 0;
#X connect 39 0 14 3;
#X connect 41 0 42 1;
#X connect 41 1 43 1;
#X connect 41 2 44 1;
#X connect 41 3 45 1;
#X connect 42 0 46 0;
#X connect 43 0 47 0;
#X connect 44 0 48 0;
#X connect 45 0 49 0;
#X connect 46 0 53 0;
#X connect 46 1 53 1;
#X connect 47 0 52 0;
#X connect 47 1 52 1;
#X connect 48 0 51 0;
#X connect 48 1 51 1;
#X connect 49 0 50 0;
#X connect 49 1 50 1;
#X connect 55 0 56 0;
#X connect 55 0 42 0;
#X connect 55 0 43 0;
#X connect 55 0 44 0;
#X connect 55 0 45 0;
#X connect 55 0 74 0;
#X connect 55 0 75 0;
#X connect 55 0 76 0;
#X connect 56 0 41 0;
#X connect 57 0 58 0;
#X connect 57 0 59 0;
#X connect 57 0 60 0;
#X connect 58 0 64 0;
#X connect 60 0 55 0;
#X connect 61 0 57 1;
#X connect 63 0 61 0;
#X connect 64 0 57 1;
#X connect 65 0 70 0;
#X connect 69 0 68 0;
#X connect 70 0 98 0;
#X connect 71 0 72 0;
#X connect 72 0 91 0;
#X connect 78 0 80 0;
#X connect 80 0 20 0;
#X connect 80 0 18 0;
#X connect 81 0 22 0;
#X connect 81 0 80 1;
#X connect 82 0 22 0;
#X connect 82 0 80 1;
#X connect 83 0 22 0;
#X connect 83 0 80 1;
#X connect 85 0 17 0;
#X connect 86 0 89 0;
#X connect 89 0 87 0;
#X connect 90 0 25 0;
#X connect 91 0 46 2;
#X connect 91 0 47 2;
#X connect 91 0 48 2;
#X connect 91 0 49 2;
#X connect 91 0 73 0;
#X connect 92 0 93 0;
#X connect 98 0 66 0;
#X connect 98 0 20 2;
#X connect 99 0 101 0;
#X connect 99 1 100 0;
