#N canvas 714 79 570 498 12;
#X obj 273 44 midirealtimein;
#X text 143 46 receive midi clock;
#X obj 273 110 f 0;
#X obj 273 131 + 1;
#X obj 274 164 f 0;
#X obj 274 185 + 1;
#X obj 304 132 sel 0;
#X floatatom 247 185 3 0 0 0 1/16_notes - -, f 3;
#X obj 274 225 f 0;
#X obj 274 246 + 1;
#X obj 274 205 sel 0;
#X floatatom 247 247 3 0 0 0 measure - -, f 3;
#X obj 312 267 timer;
#X floatatom 312 307 5 0 0 1 incoming_bpm - -, f 5;
#X obj 403 85 print clk_msg;
#X obj 355 85 s stop;
#X obj 228 326 outlet;
#X obj 312 325 outlet;
#X obj 307 110 mod 6;
#X obj 312 247 sel 0 1;
#X obj 312 287 expr 4*(60000/$f1);
#X obj 304 225 mod 2;
#X obj 308 164 mod 16;
#X text 211 25 averages bpm over two measures;
#X text 314 205 calulates bpm;
#X text 136 63 midi 1/96th note in;
#N canvas 798 113 632 468 copyrightInfo 0;
#X text 74 306 j.raski@gmail.com;
#X text 43 19 This program creates generative music on an electronic
synthesiser. Copyright (C) 2019 Jerry Z. Raski This program is free
software: you can redistribute it and/or modify it under the terms
of the GNU General Public License as published by the Free Software
Foundation \, either version 3 of the License \, or (at your option)
any later version. This program is distributed in the hope that it
will be useful \, but WITHOUT ANY WARRANTY \; without even the implied
warranty of MERCHANTABILITY or FITNESS FOR A PARTICULAR PURPOSE. See
the GNU General Public License for more details. You should have received
a copy of the GNU General Public License along with this program. If
not \, see <https://www.gnu.org/licenses/>.;
#X restore 42 420 pd copyrightInfo;
#X obj 273 63 sel 248 250 251 252;
#X text 438 369 Elektron:;
#X text 333 395 Press STOP: sends a stop;
#X text 326 408 Press PAUSE: sends a stop;
#X text 393 107 248 = clock pulse;
#X text 393 118 250 = start;
#X text 393 129 251 = continue;
#X text 393 140 252 = stop;
#X obj 318 85 s go;
#X text 242 382 Press PLAY: sends a stop then a start;
#X text 277 421 Press PAUSE 2X: sends a continue;
#X obj 188 112 f 0;
#X obj 188 133 + 1;
#X obj 219 134 sel 0;
#X obj 222 112 mod 3;
#X obj 104 326 outlet;
#X text 30 327 1/32 notes;
#X text 154 327 1/16 notes;
#X connect 0 0 27 0;
#X connect 2 0 3 0;
#X connect 3 0 18 0;
#X connect 4 0 5 0;
#X connect 4 0 7 0;
#X connect 5 0 22 0;
#X connect 6 0 4 0;
#X connect 6 0 16 0;
#X connect 8 0 9 0;
#X connect 8 0 11 0;
#X connect 8 0 19 0;
#X connect 9 0 8 1;
#X connect 9 0 21 0;
#X connect 10 0 8 0;
#X connect 12 0 20 0;
#X connect 13 0 17 0;
#X connect 18 0 2 1;
#X connect 18 0 6 0;
#X connect 19 0 12 0;
#X connect 19 1 12 1;
#X connect 20 0 13 0;
#X connect 21 0 8 1;
#X connect 22 0 4 1;
#X connect 22 0 10 0;
#X connect 27 0 2 0;
#X connect 27 0 38 0;
#X connect 27 1 35 0;
#X connect 27 2 35 0;
#X connect 27 3 15 0;
#X connect 27 4 14 0;
#X connect 38 0 39 0;
#X connect 39 0 41 0;
#X connect 40 0 42 0;
#X connect 41 0 38 1;
#X connect 41 0 40 0;
