#N canvas 1146 117 665 630 12;
#X msg 257 510 line 0 \, auto;
#X obj 110 51 bng 30 250 50 0 empty empty empty 17 7 0 10 -262144 -1
-1;
#X text 28 59 save preset;
#X obj 110 106 s do-preset;
#X obj 75 531 text set foo;
#X obj 75 469 r done-preset;
#X obj 102 490 loadbang;
#X msg 102 510 1e+006;
#X obj 110 85 t b b;
#X obj 257 530 text sequence foo1 -g;
#X obj 156 510 r preset-name;
#X obj 198 104 f;
#X floatatom 216 85 5 1 12 2 which_preset - -, f 5;
#X msg 198 124 \; preset-name symbol foo\$1 \; foo\$1 clear;
#X obj 67 196 text define -k foo1;
#A set p4 11 \; p3 7 \; p2 3 \; p1 0 \;;
#X obj 67 214 text define -k foo2;
#A set p4 9 \; p3 6 \; p2 3 \; p1 0 \;;
#X obj 67 233 text define -k foo3;
#A set p4 10 \; p3 6 \; p2 3 \; p1 0 \;;
#X obj 257 470 r preset;
#X msg 401 510 symbol foo\$1;
#X obj 257 490 t b f;
#X obj 425 239 s preset;
#X obj 425 36 vradio 15 1 0 12 empty \$1-quality recall_preset_quality
0 -8 0 10 -262144 -1 -1 9;
#X obj 425 220 + 1;
#X text 251 455 recall machinery;
#X text 71 453 save machinery;
#X floatatom 491 276 5 0 135 0 p3 p3-set p3, f 5;
#X floatatom 434 276 5 0 135 0 p2 p2-set p2, f 5;
#X floatatom 377 276 5 0 135 0 p1 p1-set p1, f 5;
#X obj 213 196 setctl2 p1;
#X obj 213 215 setctl2 p2;
#X obj 213 234 setctl2 p3;
#X obj 213 253 setctl2 p4;
#X floatatom 548 276 5 0 135 0 p4 p4-set p4, f 5;
#X obj 67 252 text define -k foo4;
#A set p4 10 \; p3 7 \; p2 3 \; p1 0 \;;
#X obj 67 271 text define -k foo5;
#A set p4 10 \; p3 7 \; p2 4 \; p1 0 \;;
#X obj 67 290 text define -k foo6;
#A set p4 11 \; p3 7 \; p2 4 \; p1 0 \;;
#X obj 68 309 text define -k foo7;
#A set p4 11 \; p3 8 \; p2 4 \; p1 0 \;;
#X obj 69 328 text define -k foo8;
#A set p4 10 \; p3 8 \; p2 4 \; p1 0 \;;
#X text 441 34 minor/major 7;
#X text 440 49 fully diminished;
#X text 441 65 half diminshed;
#X text 442 80 minor 7th;
#X text 442 96 dominant;
#X text 442 110 major 7th;
#X text 442 125 augmented major 7th;
#X text 442 140 augmented dominant;
#X obj 68 348 text define -k foo9;
#A set p4 11 \; p3 7 \; p2 2 \; p1 0 \;;
#X obj 69 367 text define -k foo10;
#A set p4 10 \; p3 7 \; p2 5 \; p1 0 \;;
#X text 443 155 major 7th sus 2;
#X text 443 170 minor 7th sus 4;
#X obj 69 387 text define -k foo11;
#A set p4 14 \; p3 11 \; p2 4 \; p1 0 \;;
#X obj 70 406 text define -k foo12;
#A set p4 14 \; p3 10 \; p2 3 \; p1 0 \;;
#X text 444 186 major 9;
#X text 444 200 minor 9;
#N canvas 798 113 632 468 copyrightInfo 1;
#X text 74 306 j.raski@gmail.com;
#X text 43 19 This program creates generative music on an electronic
synthesiser. Copyright (C) 2019 Jerry Z. Raski This program is free
software: you can redistribute it and/or modify it under the terms
of the GNU General Public License as published by the Free Software
Foundation \, either version 3 of the License \, or (at your option)
any later version. This program is distributed in the hope that it
will be useful \, but WITHOUT ANY WARRANTY \; without even the implied
warranty of MERCHANTABILITY or FITNESS FOR A PARTICULAR PURPOSE. See
the GNU General Public License for more details. You should have received
a copy of the GNU General Public License along with this program. If
not \, see <https://www.gnu.org/licenses/>.;
#X restore 53 575 pd copyrightInfo;
#X connect 0 0 9 0;
#X connect 1 0 8 0;
#X connect 5 0 4 0;
#X connect 6 0 7 0;
#X connect 7 0 4 1;
#X connect 8 0 3 0;
#X connect 8 1 11 0;
#X connect 10 0 4 3;
#X connect 11 0 13 0;
#X connect 12 0 11 1;
#X connect 17 0 19 0;
#X connect 18 0 9 1;
#X connect 19 0 0 0;
#X connect 19 1 18 0;
#X connect 21 0 22 0;
#X connect 22 0 20 0;
