#N canvas 1404 241 384 589 12;
#X obj 68 31 r \$1-noteI1;
#X obj 92 50 r \$1-noteI2;
#X obj 116 68 r \$1-noteI3;
#X obj 149 88 r \$1-noteI4;
#X obj 178 150 * 12;
#X obj 178 170 t b f;
#X obj 178 112 r \$1-voicing;
#X obj 178 131 == 1;
#X obj 116 199 -;
#X obj 116 440 s \$1-noteV3-set;
#X obj 175 238 * 12;
#X obj 175 258 t b f;
#X obj 175 200 r \$1-voicing;
#X obj 92 296 -;
#X obj 175 219 == 2;
#X obj 92 466 s \$1-noteV2-set;
#X obj 175 329 * 12;
#X obj 175 349 t b f;
#X obj 175 291 r \$1-voicing;
#X obj 175 310 == 3;
#X obj 149 386 -;
#X obj 68 412 -;
#X obj 149 413 s \$1-noteV4-set;
#X obj 68 492 s \$1-noteV1-set;
#N canvas 798 113 632 468 copyrightInfo 1;
#X text 74 306 j.raski@gmail.com;
#X text 43 19 This program creates generative music on an electronic
synthesiser. Copyright (C) 2019 Jerry Z. Raski This program is free
software: you can redistribute it and/or modify it under the terms
of the GNU General Public License as published by the Free Software
Foundation \, either version 3 of the License \, or (at your option)
any later version. This program is distributed in the hope that it
will be useful \, but WITHOUT ANY WARRANTY \; without even the implied
warranty of MERCHANTABILITY or FITNESS FOR A PARTICULAR PURPOSE. See
the GNU General Public License for more details. You should have received
a copy of the GNU General Public License along with this program. If
not \, see <https://www.gnu.org/licenses/>.;
#X restore 20 555 pd copyrightInfo;
#X connect 0 0 21 0;
#X connect 1 0 13 0;
#X connect 2 0 8 0;
#X connect 3 0 20 0;
#X connect 4 0 5 0;
#X connect 5 0 8 0;
#X connect 5 1 8 1;
#X connect 6 0 7 0;
#X connect 7 0 4 0;
#X connect 8 0 9 0;
#X connect 10 0 11 0;
#X connect 11 0 13 0;
#X connect 11 1 13 1;
#X connect 12 0 14 0;
#X connect 13 0 15 0;
#X connect 14 0 10 0;
#X connect 16 0 17 0;
#X connect 17 0 20 0;
#X connect 17 0 21 0;
#X connect 17 1 20 1;
#X connect 17 1 21 1;
#X connect 18 0 19 0;
#X connect 19 0 16 0;
#X connect 20 0 22 0;
#X connect 21 0 23 0;
